<svg width="367" height="497" viewBox="0 0 367 497" fill="none" xmlns="http://www.w3.org/2000/svg">
<path fill-rule="evenodd" clip-rule="evenodd" d="M331 128.779V290.327C331 294.541 328.191 298.755 325.381 300.16L319.762 304.375L280.429 326.851L255.143 342.303L249.524 346.517V170.922L102.024 83.827L172.262 43.0889L177.881 38.8746C182.095 37.4699 184.905 37.4699 189.119 38.8746L286.048 96.4698L331 123.16V128.779ZM215.81 309.994C215.81 314.208 214.405 318.422 210.19 319.827L204.571 324.041L142.762 360.565V234.136L36 170.922L41.619 168.113L104.833 131.589C107.643 128.779 111.857 128.779 114.667 131.589L186.31 172.327L215.81 190.589V309.994ZM109.048 253.803V340.898L36 297.351L109.048 253.803Z" fill="#5CE500"/>
<path fill-rule="evenodd" clip-rule="evenodd" d="M53.7949 393.256C53.7949 406.098 45.6616 413.375 30.6791 413.375H16.9809V439.06H5.85107V373.565H30.6791C51.6546 373.565 53.7949 387.263 53.7949 393.256ZM30.6791 383.411H16.9809V403.53H28.9669C38.8125 403.53 42.6651 400.533 42.6651 393.256C42.6651 386.407 38.8125 383.411 30.6791 383.411ZM86.3282 391.116L87.1844 391.544L85.4721 401.389L84.1879 400.961C83.0463 400.676 81.9048 400.533 80.7633 400.533C70.4896 400.533 70.0616 408.239 70.0616 418.084V439.06H59.7879V391.116H69.2054V396.681C71.7738 392.828 74.7703 390.688 79.051 390.26C81.6194 389.832 84.1879 390.26 86.3282 391.116ZM129.135 397.537C132.988 401.818 135.128 407.811 135.128 414.66C135.128 426.218 128.707 439.916 111.584 439.916C97.03 439.916 88.0405 430.07 88.0405 415.088C88.0405 411.235 88.4686 404.386 92.7493 398.393C97.03 392.828 103.451 389.832 111.584 389.832C118.862 389.832 124.855 392.4 129.135 397.537ZM124.426 414.66C124.426 404.814 119.29 398.821 111.584 398.821C103.451 398.821 98.7423 405.242 98.7423 415.088C98.7423 424.933 103.451 430.926 111.584 430.926C119.29 430.926 124.426 424.933 124.426 414.66ZM220.314 391.116L221.17 391.544L219.03 401.389L217.746 400.961C216.89 400.676 215.891 400.533 214.749 400.533C204.476 400.533 203.619 408.239 203.619 418.084V439.06H193.346V391.116H203.191V396.681C205.76 392.828 208.756 390.688 213.037 390.26C215.605 389.974 218.031 390.26 220.314 391.116ZM266.974 423.649L266.546 424.505C263.977 434.351 256.272 439.916 245.57 439.916C231.444 439.916 222.026 429.642 222.026 415.088C222.026 409.095 223.739 403.102 227.163 398.393C231.444 392.828 237.437 389.832 245.142 389.832C257.984 389.832 266.974 399.249 267.402 412.519C267.402 412.805 267.402 413.09 267.402 413.375C267.402 414.517 267.259 415.801 266.974 417.228V418.084H232.3C232.728 426.218 237.865 431.354 245.57 431.354C249.423 431.354 254.56 430.07 256.7 424.077V423.649H266.974ZM256.7 409.523C255.844 401.389 249.851 398.821 244.714 398.821C238.293 398.821 233.584 402.674 232.728 409.523H256.7ZM174.939 394.968V391.116H184.784V434.351C184.784 440.629 183.928 445.481 182.216 448.905C178.791 455.754 171.942 459.179 162.097 459.179C150.967 459.179 143.262 454.042 141.977 445.481V444.196H151.823L152.251 445.053C153.107 449.333 157.816 450.618 162.097 450.618C170.23 450.618 174.083 446.765 174.511 439.06C174.511 438.204 174.511 436.063 174.511 433.923C171.514 437.347 166.805 439.06 162.097 439.06C147.114 439.06 140.265 426.646 140.265 414.66C140.265 402.674 147.114 389.832 162.097 389.832C167.519 389.832 171.8 391.544 174.939 394.968ZM174.939 414.232C174.939 402.674 168.518 398.821 162.953 398.821C155.247 398.821 150.967 404.814 150.967 414.232C150.967 428.786 159.1 430.07 162.525 430.07C170.23 430.07 174.939 424.077 174.939 414.232ZM314.061 424.505C314.061 432.211 307.64 439.916 293.086 439.916C280.244 439.916 272.967 434.351 271.682 424.505V423.649H281.528L281.956 424.077C283.24 430.07 288.805 431.354 293.514 431.354C298.651 431.354 303.788 429.642 303.788 425.361C303.788 423.078 302.361 421.509 299.507 420.653C297.795 420.225 295.654 419.368 293.086 418.94C289.233 417.656 284.953 416.8 282.812 415.944C276.391 413.804 272.967 409.523 272.967 403.958C272.967 394.54 282.384 390.26 291.802 390.26C304.644 390.26 311.493 394.968 312.349 404.386V405.67H302.504V404.814C301.219 399.249 295.654 398.393 292.23 398.393C289.661 398.393 282.812 398.821 282.812 403.53C282.812 405.528 284.667 407.097 288.377 408.239C289.519 408.524 291.088 408.952 293.086 409.523C297.367 410.379 302.075 411.663 304.644 412.519C310.922 414.517 314.061 418.512 314.061 424.505ZM361.149 424.505C361.149 432.211 354.728 439.916 340.174 439.916C327.332 439.916 319.626 434.351 318.77 424.505L318.342 423.649H328.616V424.505C329.9 430.07 335.893 431.354 340.174 431.354C345.311 431.354 350.875 430.07 350.875 425.361C350.875 423.078 349.306 421.509 346.167 420.653C344.454 420.225 342.314 419.368 340.174 418.94C335.893 417.656 332.04 416.8 329.472 415.944C323.051 413.804 319.626 409.523 319.626 404.386C319.626 394.54 329.472 390.26 338.889 390.26C351.732 390.26 358.153 394.968 359.009 404.386V405.67H349.163V404.814C348.307 399.249 342.742 398.393 339.318 398.393C336.321 398.393 329.9 398.821 329.9 403.53C329.9 405.528 331.755 407.097 335.465 408.239C336.606 408.524 338.176 408.952 340.174 409.523C344.026 410.379 349.163 411.663 351.732 412.519C358.01 414.802 361.149 418.798 361.149 424.505Z" fill="white"/>
</svg>
