<svg width="19" height="39" viewBox="0 0 19 39" fill="none" xmlns="http://www.w3.org/2000/svg">
<path d="M0 28.7873C0 28.5953 0 28.4033 6.85431e-08 28.2113C0.00895201 28.1924 0.0231187 28.1742 0.0260966 28.1543C0.110886 27.5888 0.387728 27.1312 0.78807 26.731C3.22101 24.2994 5.64972 21.8635 8.07883 19.4281C8.13345 19.3733 8.20912 19.3317 8.22084 19.2427C8.28544 19.249 8.31176 19.1945 8.34796 19.159C8.51901 18.9913 8.68852 18.822 8.85777 18.6525C12.1826 15.3216 15.5074 11.9906 18.8325 8.6601C18.8772 8.61542 18.9271 8.57604 18.9745 8.53418C19.0137 8.60418 18.996 8.68057 18.996 8.7539C18.9969 15.5625 18.9957 22.3712 18.9988 29.1798C18.9991 29.7671 18.7992 30.2528 18.3827 30.6685C16.1283 32.919 13.8802 35.1757 11.6294 37.4299C11.5316 37.5278 11.4313 37.6234 11.3287 37.7162C10.4456 38.5153 9.00694 38.493 8.16194 37.6494C5.65504 35.1467 3.15468 32.6375 0.651979 30.1305C0.496459 29.9747 0.377364 29.7932 0.270698 29.6009C0.1292 29.3457 0.0725005 29.0643 0 28.7873Z" fill="url(#paint0_linear_870_2388)"/>
<path d="M18.9745 8.53413C18.9271 8.57599 18.8772 8.61537 18.8325 8.66005C15.5074 11.9906 12.1826 15.3216 8.85777 18.6524C8.68852 18.822 8.51901 18.9912 8.34796 19.159C8.31176 19.1945 8.28544 19.2489 8.22084 19.2427C7.50212 18.5237 6.78318 17.805 6.06473 17.0858C4.27398 15.2931 2.48306 13.5007 0.693203 11.7071C0.365883 11.3792 0.153062 10.9872 0.0512572 10.5334C0.0381538 10.475 0.0563997 10.404 0 10.3574C0 10.1441 0 9.93077 1.14178e-08 9.71746C0.0379106 9.58145 0.0732156 9.44463 0.114204 9.30955C0.256496 8.8406 0.565164 8.48981 0.904544 8.151C3.28549 5.77406 5.66089 3.39154 8.0363 1.00904C8.33858 0.705864 8.682 0.473756 9.09252 0.34818C9.22176 0.308649 9.35435 0.280137 9.4854 0.246582C9.67702 0.246582 9.86865 0.246582 10.0603 0.246582C10.0777 0.255522 10.0943 0.270144 10.1125 0.272576C10.6256 0.340946 11.0677 0.559862 11.4317 0.923784C13.9244 3.41542 16.4141 5.90992 18.9041 8.40417C18.9391 8.43922 18.9975 8.46579 18.9745 8.53413Z" fill="url(#paint1_linear_870_2388)"/>
<defs>
<linearGradient id="paint0_linear_870_2388" x1="0" y1="23.4167" x2="19" y2="23.4167" gradientUnits="userSpaceOnUse">
<stop stop-color="#65DCBF"/>
<stop offset="0.256798" stop-color="#58CEB3"/>
<stop offset="0.6754" stop-color="#4ABDA5"/>
<stop offset="0.994382" stop-color="#45B8A0"/>
</linearGradient>
<linearGradient id="paint1_linear_870_2388" x1="2.18409" y1="5.62443" x2="16.0368" y2="13.6223" gradientUnits="userSpaceOnUse">
<stop stop-color="#7456CD"/>
<stop offset="0.102551" stop-color="#6D51C1"/>
<stop offset="0.708652" stop-color="#483580"/>
<stop offset="0.994382" stop-color="#3A2B67"/>
</linearGradient>
</defs>
</svg>
