<?xml version="1.0" encoding="UTF-8"?>
<svg id="Capa_1" data-name="Capa 1" xmlns="http://www.w3.org/2000/svg" xmlns:xlink="http://www.w3.org/1999/xlink" viewBox="0 0 7345.37 1956.51">
  <defs>
    <style>
      .cls-1, .cls-2, .cls-3, .cls-4, .cls-5, .cls-6, .cls-7, .cls-8, .cls-9, .cls-10, .cls-11 {
        stroke-width: 0px;
      }

      .cls-1, .cls-12 {
        fill: #000;
      }

      .cls-2 {
        fill: url(#Degradado_sin_nombre_15-2);
      }

      .cls-3 {
        fill: url(#Degradado_sin_nombre_21-4);
      }

      .cls-4 {
        fill: url(#Degradado_sin_nombre_21);
      }

      .cls-5 {
        fill: url(#Degradado_sin_nombre_21-3);
      }

      .cls-6 {
        fill: url(#Degradado_sin_nombre_15);
      }

      .cls-12 {
        font-family: Syncopate-Bold, Syncopate;
        font-size: 76px;
        font-weight: 700;
        letter-spacing: -.04em;
      }

      .cls-7 {
        fill: url(#Degradado_sin_nombre_15-4);
      }

      .cls-8 {
        fill: #fff;
      }

      .cls-9 {
        fill: #65dcbf;
      }

      .cls-10 {
        fill: url(#Degradado_sin_nombre_21-2);
      }

      .cls-11 {
        fill: url(#Degradado_sin_nombre_15-3);
      }
    </style>
    <linearGradient id="Degradado_sin_nombre_21" data-name="Degradado sin nombre 21" x1="1991.11" y1="1433.46" x2="2584.82" y2="1433.46" gradientUnits="userSpaceOnUse">
      <stop offset="0" stop-color="#65dcbf"/>
      <stop offset=".26" stop-color="#58ceb3"/>
      <stop offset=".68" stop-color="#4abda5"/>
      <stop offset=".99" stop-color="#45b8a0"/>
    </linearGradient>
    <linearGradient id="Degradado_sin_nombre_15" data-name="Degradado sin nombre 15" x1="2059.67" y1="877.48" x2="2492.55" y2="1127.4" gradientUnits="userSpaceOnUse">
      <stop offset="0" stop-color="#7456cd"/>
      <stop offset=".1" stop-color="#6d51c1"/>
      <stop offset=".71" stop-color="#483580"/>
      <stop offset=".99" stop-color="#3a2b67"/>
    </linearGradient>
    <linearGradient id="Degradado_sin_nombre_21-2" data-name="Degradado sin nombre 21" x1="281.11" y1="1856.84" x2="303.66" y2="1856.84" xlink:href="#Degradado_sin_nombre_21"/>
    <linearGradient id="Degradado_sin_nombre_15-2" data-name="Degradado sin nombre 15" x1="283.71" y1="1835.72" x2="300.16" y2="1845.21" xlink:href="#Degradado_sin_nombre_15"/>
    <linearGradient id="Degradado_sin_nombre_21-3" data-name="Degradado sin nombre 21" x1="3334.26" y1="1491.46" x2="3927.98" y2="1491.46" xlink:href="#Degradado_sin_nombre_21"/>
    <linearGradient id="Degradado_sin_nombre_15-3" data-name="Degradado sin nombre 15" x1="3402.51" y1="935.48" x2="3835.39" y2="1185.4" xlink:href="#Degradado_sin_nombre_15"/>
    <linearGradient id="Degradado_sin_nombre_21-4" data-name="Degradado sin nombre 21" x1="6239.97" y1="711.16" x2="6546.37" y2="711.16" xlink:href="#Degradado_sin_nombre_21"/>
    <linearGradient id="Degradado_sin_nombre_15-4" data-name="Degradado sin nombre 15" x1="6275.19" y1="424.23" x2="6498.58" y2="553.21" xlink:href="#Degradado_sin_nombre_15"/>
  </defs>
  <text/>
  <path class="cls-4" d="M1991.11,1601.28c0-6,0-12,0-18,.28-.59.72-1.16.82-1.78,2.65-17.67,11.3-31.97,23.81-44.48,76.03-75.98,151.92-152.1,227.82-228.2,1.71-1.71,4.07-3.01,4.44-5.79,2.02.2,2.84-1.51,3.97-2.62,5.34-5.24,10.64-10.53,15.93-15.83,103.9-104.08,207.79-208.17,311.69-312.24,1.39-1.4,2.95-2.63,4.44-3.93,1.23,2.19.67,4.57.67,6.87.03,212.76,0,425.52.09,638.27,0,18.35-6.24,33.53-19.25,46.52-70.45,70.32-140.7,140.84-211.03,211.28-3.06,3.06-6.19,6.05-9.39,8.95-27.6,24.97-72.55,24.27-98.96-2.09-78.34-78.21-156.47-156.62-234.67-234.95-4.86-4.87-8.58-10.54-11.91-16.55-4.42-7.97-6.19-16.77-8.46-25.42Z"/>
  <path class="cls-6" d="M2584.34,968.4c-1.48,1.31-3.04,2.54-4.44,3.93-103.91,104.07-207.8,208.16-311.69,312.24-5.29,5.3-10.59,10.59-15.93,15.83-1.13,1.11-1.95,2.81-3.97,2.62-22.46-22.47-44.92-44.93-67.37-67.4-55.96-56.02-111.92-112.03-167.85-168.07-10.23-10.25-16.88-22.5-20.06-36.68-.41-1.83.16-4.04-1.6-5.5,0-6.67,0-13.33,0-20,1.18-4.25,2.29-8.53,3.57-12.75,4.45-14.65,14.09-25.62,24.7-36.2,74.4-74.28,148.63-148.72,222.86-223.17,9.45-9.47,20.18-16.73,33.01-20.65,4.04-1.24,8.18-2.13,12.28-3.17,5.99,0,11.98,0,17.96,0,.54.28,1.06.74,1.63.81,16.03,2.14,29.85,8.98,41.22,20.35,77.89,77.86,155.69,155.81,233.5,233.75,1.09,1.1,2.92,1.93,2.2,4.06Z"/>
  <path class="cls-10" d="M281.11,1863.22c0-.23,0-.46,0-.68.01-.02.03-.04.03-.07.1-.67.43-1.21.9-1.69,2.89-2.89,5.77-5.78,8.66-8.67.06-.07.15-.11.17-.22.08,0,.11-.06.15-.1.2-.2.4-.4.61-.6,3.95-3.95,7.89-7.91,11.84-11.86.05-.05.11-.1.17-.15.05.08.03.17.03.26,0,8.08,0,16.17,0,24.25,0,.7-.24,1.27-.73,1.77-2.68,2.67-5.35,5.35-8.02,8.03-.12.12-.24.23-.36.34-1.05.95-2.76.92-3.76-.08-2.98-2.97-5.94-5.95-8.92-8.93-.18-.18-.33-.4-.45-.63-.17-.3-.24-.64-.32-.97Z"/>
  <path class="cls-2" d="M303.64,1839.17c-.06.05-.12.1-.17.15-3.95,3.95-7.89,7.91-11.84,11.86-.2.2-.4.4-.61.6-.04.04-.07.11-.15.1-.85-.85-1.71-1.71-2.56-2.56-2.13-2.13-4.25-4.26-6.38-6.39-.39-.39-.64-.85-.76-1.39-.02-.07,0-.15-.06-.21,0-.25,0-.51,0-.76.05-.16.09-.32.14-.48.17-.56.54-.97.94-1.38,2.83-2.82,5.65-5.65,8.47-8.48.36-.36.77-.64,1.25-.78.15-.05.31-.08.47-.12.23,0,.45,0,.68,0,.02.01.04.03.06.03.61.08,1.13.34,1.57.77,2.96,2.96,5.92,5.92,8.87,8.88.04.04.11.07.08.15Z"/>
  <g>
    <path class="cls-5" d="M3334.26,1659.28c0-6,0-12,0-18,.28-.59.72-1.16.82-1.78,2.65-17.67,11.3-31.97,23.81-44.48,76.03-75.98,151.92-152.1,227.82-228.2,1.71-1.71,4.07-3.01,4.44-5.79,2.02.2,2.84-1.51,3.97-2.62,5.34-5.24,10.64-10.53,15.93-15.83,103.9-104.08,207.79-208.17,311.69-312.24,1.39-1.4,2.95-2.63,4.44-3.93,1.23,2.19.67,4.57.67,6.87.03,212.76,0,425.52.09,638.27,0,18.35-6.24,33.53-19.25,46.52-70.45,70.32-140.7,140.84-211.03,211.28-3.06,3.06-6.19,6.05-9.39,8.95-27.6,24.97-72.55,24.27-98.96-2.09-78.34-78.21-156.47-156.62-234.67-234.95-4.86-4.87-8.58-10.54-11.91-16.55-4.42-7.97-6.19-16.77-8.46-25.42Z"/>
    <path class="cls-11" d="M3927.18,1026.4c-1.48,1.31-3.04,2.54-4.44,3.93-103.91,104.07-207.8,208.16-311.69,312.24-5.29,5.3-10.59,10.59-15.93,15.83-1.13,1.11-1.95,2.81-3.97,2.62-22.46-22.47-44.92-44.93-67.37-67.4-55.96-56.02-111.92-112.03-167.85-168.07-10.23-10.25-16.88-22.5-20.06-36.68-.41-1.83.16-4.04-1.6-5.5,0-6.67,0-13.33,0-20,1.18-4.25,2.29-8.53,3.57-12.75,4.45-14.65,14.09-25.62,24.7-36.2,74.4-74.28,148.63-148.72,222.86-223.17,9.45-9.47,20.18-16.73,33.01-20.65,4.04-1.24,8.18-2.13,12.28-3.17,5.99,0,11.98,0,17.96,0,.54.28,1.06.74,1.63.81,16.03,2.14,29.85,8.98,41.22,20.35,77.89,77.86,155.69,155.81,233.5,233.75,1.09,1.1,2.92,1.93,2.2,4.06Z"/>
    <path class="cls-1" d="M4147.31,1446.32c-.17.89-.38,1.51-.4,2.13-.06,1.82-.05,3.65-.05,5.47,0,77.23,0,154.46-.01,231.69,0,2.12.24,4.27-.39,6.65-1.03.12-1.97.29-2.91.33-1.16.06-2.32.02-3.48.02-49.89,0-99.79,0-149.68,0h-6.16c-.24-1.21-.52-2.12-.57-3.05-.09-1.49-.04-2.98-.04-4.47,0-216.45,0-432.89.01-649.34,0-2.28-.27-4.6.35-7.02.72-.14,1.34-.33,1.96-.36,1.32-.06,2.65-.04,3.98-.04,82.05,0,164.1-.04,246.16.02,28.76.02,56.72,4.8,83.68,14.95,34.42,12.96,63.52,33.35,86.32,62.37,18,22.91,29.78,48.8,36.45,77.09,5.4,22.92,6.98,46.17,5.7,69.61-1.45,26.7-7.02,52.51-18.06,76.96-19.17,42.49-50.1,73.57-91.87,93.97-20.85,10.18-42.87,16.59-65.81,19.95-13.31,1.95-26.67,2.88-40.12,2.86-26.52-.04-53.04-.02-79.57,0-1.79,0-3.57.12-5.5.19ZM4147.25,1303.52c1.53.09,2.82.22,4.11.22,23.03.01,46.05.06,69.08-.02,7.64-.02,15.21-.92,22.6-2.93,21.11-5.74,34.82-19.01,40.45-40.28,3.58-13.52,4-27.18.79-40.81-4.29-18.2-14.4-32.16-31.05-41.05-9.83-5.25-20.46-7.77-31.52-7.87-23.85-.22-47.71-.07-71.57-.05-.95,0-1.89.23-2.76.34-.78,4.84-1.16,107.41-.51,129.36.03.95.22,1.89.36,3.08Z"/>
    <path class="cls-1" d="M5231.35,1295.68c.69-2.8.32-5.17.38-7.5.06-2.4.01-4.8.01-7.19s-.05-4.8.01-7.19c.06-2.36-.31-4.75.37-7.26.89-.12,1.65-.3,2.41-.33,13.43-.49,131.26-.17,135.44.39.14.85.37,1.76.42,2.68.07,1.44.03,2.88.03,4.32,0,133.98,0,267.96-.02,401.94,0,2.19.41,4.45-.46,6.6-.57.17-1.01.42-1.45.42-44.93.02-89.87.02-134.8,0-.45,0-.89-.24-1.59-.43-.72-2.6-.28-5.31-.35-7.98-.08-2.72-.02-5.44-.02-8.15v-8c-1.87-.54-2.69.7-3.66,1.39-8.65,6.08-17.72,11.43-27.4,15.72-13.67,6.05-27.96,9.96-42.65,12.49-21.05,3.63-42.28,4.61-63.56,3.64-31.2-1.43-61.01-8.52-88.76-23.22-32.83-17.4-58.01-42.65-76.35-74.83-12.38-21.72-20.53-44.98-25.2-69.52-2.94-15.44-4.43-31.03-4.3-46.72.28-34.48,6.99-67.61,21.61-98.98,12.69-27.22,30.24-50.71,53.55-69.78,22.01-18.01,46.97-30.12,74.5-37.03,18.38-4.62,37.06-6.78,56.01-6.81,11.04-.02,22.07.21,33.07,1.11,19.32,1.58,38.39,4.55,56.79,10.93,12.16,4.22,23.55,9.9,33.73,17.88.58.45,1.24.8,2.22,1.43ZM5142.22,1559.54c2.28-.19,6.46-.28,10.56-.91,19.45-3,36.13-11.52,49.75-25.74,15.38-16.05,23.48-35.29,23.88-57.5.31-17.07-4.49-32.83-13.88-47.12-18.21-27.7-51.24-43.69-85.83-37.99-18.03,2.98-33.73,10.94-46.56,23.96-20.87,21.18-29.33,46.67-23.83,75.94,7.46,39.64,42.75,69.09,85.9,69.36Z"/>
    <path class="cls-1" d="M4688.21,1029.07c4.62-.71,152.73-.74,157.07-.09.13.84.34,1.74.38,2.66.07,1.44.02,2.88.02,4.32,0,216.47,0,432.95,0,649.42,0,2.21.21,4.44-.33,6.88-1.02.13-1.92.29-2.84.34-1.12.06-2.24.02-3.36.02-48.13,0-96.26,0-144.39,0h-5.94c-.23-1.13-.51-2.01-.58-2.9-.09-1.27-.03-2.56-.03-3.84,0-216.79,0-433.58,0-650.38v-6.43Z"/>
    <path class="cls-1" d="M4628.7,1692.26c-1.33.16-2.1.32-2.86.34-15.29.51-148.6.18-153.34-.41-.15-.78-.42-1.66-.47-2.55-.09-1.43-.04-2.88-.04-4.32,0-132.88,0-265.76,0-398.65,0-2.2-.18-4.44.32-6.68,1.06-.17,1.83-.41,2.6-.41,50.7.01,101.4.04,152.09.09.43,0,.86.35,1.43.6.08.75.24,1.53.24,2.3.01,136.39.01,272.78.01,409.69Z"/>
    <path class="cls-9" d="M4628.7,1245.69c-1.33.05-2.1.09-2.86.09-15.29.14-148.6.05-153.34-.11-.15-.22-.42-.46-.47-.71-.09-.4-.04-.8-.04-1.2,0-36.82,0-73.64,0-110.46,0-.61-.18-1.23.32-1.85,1.06-.05,1.83-.11,2.6-.11,50.7,0,101.4.01,152.09.03.43,0,.86.1,1.43.17.08.21.24.42.24.64.01,37.79.01,75.59.01,113.52Z"/>
    <path class="cls-9" d="M5469.29,1128.33h-25.54v-79.58h-20.91v-21.78h67.35v21.71h-20.9v79.65Z"/>
    <path class="cls-9" d="M5411.79,1128.33h-25.48v-101.38h25.48v101.38Z"/>
    <text class="cls-12" transform="translate(3978 1828.52) scale(1.01 1)"><tspan x="0" y="0">Create build and inspire.</tspan></text>
  </g>
  <g>
    <path class="cls-3" d="M6239.97,797.77c0-3.1,0-6.19,0-9.29.14-.31.37-.6.42-.92,1.37-9.12,5.83-16.5,12.29-22.95,39.23-39.21,78.4-78.5,117.57-117.77.88-.88,2.1-1.55,2.29-2.99,1.04.1,1.47-.78,2.05-1.35,2.76-2.7,5.49-5.43,8.22-8.17,53.62-53.71,107.23-107.43,160.86-161.14.72-.72,1.52-1.36,2.29-2.03.63,1.13.35,2.36.35,3.54.01,109.8,0,219.6.05,329.4,0,9.47-3.22,17.3-9.94,24.01-36.36,36.29-72.61,72.69-108.91,109.04-1.58,1.58-3.19,3.12-4.85,4.62-14.24,12.89-37.44,12.53-51.07-1.08-40.43-40.36-80.75-80.83-121.11-121.25-2.51-2.51-4.43-5.44-6.15-8.54-2.28-4.12-3.2-8.65-4.37-13.12Z"/>
    <path class="cls-7" d="M6545.96,471.15c-.76.67-1.57,1.31-2.29,2.03-53.62,53.71-107.24,107.43-160.86,161.14-2.73,2.73-5.46,5.46-8.22,8.17-.58.57-1.01,1.45-2.05,1.35-11.59-11.59-23.18-23.18-34.77-34.78-28.88-28.91-57.76-57.82-86.62-86.74-5.28-5.29-8.71-11.61-10.35-18.93-.21-.94.08-2.09-.83-2.84,0-3.44,0-6.88,0-10.32.61-2.19,1.18-4.4,1.84-6.58,2.29-7.56,7.27-13.22,12.75-18.68,38.4-38.33,76.7-76.75,115.01-115.17,4.87-4.89,10.41-8.63,17.03-10.66,2.08-.64,4.22-1.1,6.34-1.64,3.09,0,6.18,0,9.27,0,.28.14.55.38.84.42,8.27,1.1,15.4,4.63,21.27,10.5,40.2,40.18,80.35,80.41,120.5,120.63.56.57,1.51.99,1.13,2.1Z"/>
    <path class="cls-8" d="M6659.56,687.87c-.09.46-.2.78-.21,1.1-.03.94-.02,1.88-.02,2.82,0,39.86,0,79.71,0,119.57,0,1.09.13,2.2-.2,3.43-.53.06-1.02.15-1.5.17-.6.03-1.2,0-1.8,0-25.75,0-51.5,0-77.25,0h-3.18c-.12-.62-.27-1.09-.29-1.57-.05-.77-.02-1.54-.02-2.31,0-111.7,0-223.41,0-335.11,0-1.18-.14-2.37.18-3.62.37-.07.69-.17,1.01-.19.68-.03,1.37-.02,2.05-.02,42.35,0,84.69-.02,127.04.01,14.84.01,29.27,2.48,43.19,7.72,17.76,6.69,32.78,17.21,44.55,32.19,9.29,11.83,15.37,25.18,18.81,39.79,2.79,11.83,3.6,23.83,2.94,35.92-.75,13.78-3.62,27.1-9.32,39.72-9.89,21.93-25.86,37.97-47.41,48.5-10.76,5.25-22.12,8.56-33.96,10.3-6.87,1.01-13.77,1.49-20.71,1.47-13.69-.02-27.37,0-41.06,0-.92,0-1.84.06-2.84.1ZM6659.53,614.17c.79.04,1.46.11,2.12.11,11.88,0,23.77.03,35.65,0,3.94-.01,7.85-.48,11.66-1.51,10.9-2.96,17.97-9.81,20.88-20.79,1.85-6.98,2.07-14.03.41-21.06-2.21-9.39-7.43-16.6-16.02-21.18-5.07-2.71-10.56-4.01-16.26-4.06-12.31-.11-24.62-.04-36.93-.03-.49,0-.98.12-1.42.17-.4,2.5-.6,55.43-.26,66.76.01.49.11.97.19,1.59Z"/>
    <path class="cls-8" d="M7219.01,610.12c.35-1.44.17-2.67.2-3.87.03-1.24,0-2.48,0-3.71s-.03-2.48,0-3.71c.03-1.22-.16-2.45.19-3.75.46-.06.85-.15,1.24-.17,6.93-.25,67.74-.09,69.9.2.07.44.19.91.22,1.38.04.74.01,1.48.01,2.23,0,69.14,0,138.29-.01,207.43,0,1.13.21,2.3-.23,3.41-.29.09-.52.22-.75.22-23.19,0-46.38.01-69.57,0-.23,0-.46-.12-.82-.22-.37-1.34-.14-2.74-.18-4.12-.04-1.4,0-2.81,0-4.21v-4.13c-.97-.28-1.39.36-1.89.72-4.47,3.14-9.14,5.9-14.14,8.11-7.05,3.12-14.43,5.14-22.01,6.45-10.86,1.87-21.82,2.38-32.8,1.88-16.1-.74-31.49-4.4-45.81-11.99-16.94-8.98-29.94-22.01-39.4-38.62-6.39-11.21-10.6-23.21-13.01-35.88-1.52-7.97-2.28-16.01-2.22-24.11.15-17.79,3.61-34.89,11.15-51.08,6.55-14.05,15.61-26.17,27.64-36.01,11.36-9.29,24.24-15.54,38.45-19.11,9.49-2.38,19.13-3.5,28.91-3.52,5.7,0,11.39.11,17.07.57,9.97.82,19.81,2.35,29.31,5.64,6.27,2.18,12.16,5.11,17.41,9.23.3.23.64.42,1.15.74ZM7173.01,746.29c1.18-.1,3.34-.14,5.45-.47,10.04-1.55,18.65-5.95,25.68-13.28,7.94-8.28,12.12-18.21,12.33-29.67.16-8.81-2.32-16.94-7.16-24.32-9.4-14.29-26.44-22.55-44.29-19.6-9.3,1.54-17.41,5.65-24.03,12.37-10.77,10.93-15.14,24.08-12.3,39.19,3.85,20.46,22.06,35.66,44.33,35.79Z"/>
    <path class="cls-8" d="M6938.71,472.53c2.39-.37,78.82-.38,81.06-.04.06.43.18.9.2,1.37.04.74.01,1.48.01,2.23,0,111.72,0,223.43,0,335.15,0,1.14.11,2.29-.17,3.55-.52.06-.99.15-1.46.17-.58.03-1.15,0-1.73,0-24.84,0-49.68,0-74.52,0h-3.07c-.12-.58-.26-1.04-.3-1.5-.05-.66-.02-1.32-.02-1.98,0-111.88,0-223.76,0-335.64v-3.32Z"/>
    <path class="cls-8" d="M6907.99,814.79c-.69.08-1.08.16-1.48.18-7.89.26-76.69.09-79.13-.21-.08-.4-.22-.86-.24-1.32-.05-.74-.02-1.48-.02-2.23,0-68.58,0-137.16,0-205.73,0-1.14-.09-2.29.17-3.45.55-.09.94-.21,1.34-.21,26.16,0,52.33.02,78.49.05.22,0,.44.18.74.31.04.39.13.79.13,1.19,0,70.39,0,140.77,0,211.43Z"/>
    <path class="cls-9" d="M6907.99,584.32c-.69.02-1.08.05-1.48.05-7.89.07-76.69.03-79.13-.06-.08-.11-.22-.24-.24-.36-.05-.21-.02-.41-.02-.62,0-19,0-38.01,0-57.01,0-.32-.09-.63.17-.96.55-.02.94-.06,1.34-.06,26.16,0,52.33,0,78.49.01.22,0,.44.05.74.09.04.11.13.22.13.33,0,19.5,0,39.01,0,58.59Z"/>
    <path class="cls-9" d="M7334.58,523.76h-13.18v-41.07h-10.79v-11.24h34.76v11.2h-10.79v41.11Z"/>
    <path class="cls-9" d="M7304.9,523.76h-13.15v-52.32h13.15v52.32Z"/>
  </g>
</svg>